# xmcd
#
# Track frame offsets:
#	150
#	16802
#	45822
#	81458
#
# Disc length: 1573 seconds
#
# Revision: 0
# Processed by: cddbd v1.5.2PL0 Copyright (c) Steve Scherf et al.
# Submitted via: audiograbber 1.83.01
#
DISCID=20062304
DTITLE=ATB pres. Jades - Wrong Medication
DYEAR=2008
DGENRE=Trance
TTITLE0=Wrong Medication - Radio Edit
TTITLE1=Wrong Medication - Club Mix
TTITLE2=Wrong Medication - Patric La F
TTITLE3=Wrong Medication - Doc Phatt R
EXTD=
EXTT0=
EXTT1=
EXTT2=
EXTT3=
PLAYORDER=
